<svg width="186" height="40" viewBox="0 0 186 40" fill="none" xmlns="http://www.w3.org/2000/svg">
<path d="M33.0658 39.9999C44.051 39.9999 52.9562 31.0873 52.9562 20.093C52.9562 9.09868 44.051 0.186035 33.0658 0.186035C22.0806 0.186035 13.1754 9.09868 13.1754 20.093C13.1754 31.0873 22.0806 39.9999 33.0658 39.9999Z" fill="url(#paint0_linear_1_343)"/>
<path d="M51.1128 11.4829C47.9433 9.73498 45.2589 8.82864 43.3831 8.27837C37.0116 6.4657 32.7748 7.21019 29.8317 3.97329C28.7968 2.84038 28.2793 1.57799 27.9882 0.671657C31.2871 -0.202306 34.8771 -0.267044 38.4024 0.736395C44.224 2.35484 48.7195 6.40097 51.1128 11.4829Z" fill="white"/>
<path d="M39.3726 38.8023C35.7503 40 31.7399 40.1942 27.7941 39.0937C22.49 37.6371 18.2856 34.1413 15.7628 29.6743C18.9647 31.1633 21.7138 31.9078 23.5897 32.3285C30.0581 33.7204 34.2625 32.7169 37.3998 35.7273C38.467 36.7955 39.0492 37.9284 39.3726 38.8023Z" fill="white"/>
<path d="M64.0819 34.8858C61.0094 36.4072 56.6109 36.3747 50.9511 34.821C50.2395 34.6268 48.4931 34.1089 47.3934 33.7853C47.5551 33.6234 47.7169 33.4616 47.8463 33.2997C48.2667 32.8465 48.6548 32.3609 49.0429 31.8755C49.5604 31.1634 50.0455 30.4188 50.4983 29.642C57.4842 31.9078 60.6537 31.1957 61.9474 30.5483C62.3355 30.3541 62.4649 29.8685 62.2708 29.4478C61.0094 26.7612 57.7429 24.2687 52.8916 22.2295C51.2422 21.5498 49.431 20.9023 47.4257 20.3197C45.0325 19.6076 42.3804 19.1868 39.5343 19.0249C29.7023 18.4423 24.2688 14.2343 21.4227 10.8033C20.0967 9.18478 19.2234 7.5987 18.6089 6.27157C19.7732 5.04155 21.0993 3.941 22.5224 3.03467C23.3955 5.68893 27.0178 13.4252 39.7607 14.1373C42.9626 14.3315 45.9704 14.8169 48.7194 15.6262C50.0131 16.0146 51.3715 16.4355 52.7298 16.9534C58.3574 19.0574 64.2436 22.3589 66.5724 27.3438C67.963 30.1599 66.7987 33.5263 64.0819 34.8858Z" fill="white"/>
<path d="M47.8462 33.2996C46.7143 34.5297 45.453 35.6302 44.0945 36.5365C42.5098 33.2025 38.273 27.5379 27.4707 26.9229C24.2689 26.7287 21.2611 26.2431 18.5119 25.434C16.9595 24.9808 15.2777 24.4305 13.6283 23.7831C8.29182 21.6791 2.89068 18.4746 0.626735 13.7164C-0.699293 10.9326 0.465024 7.56625 3.18176 6.20675C6.25427 4.68542 10.6528 4.71778 16.3126 6.27149C16.9272 6.43334 17.5417 6.62755 18.1562 6.82176C17.0565 8.08415 16.0863 9.5084 15.3424 11.0298C9.35911 9.31417 6.54534 9.96156 5.34869 10.5442C4.96059 10.7384 4.83122 11.224 5.02527 11.6447C6.18959 14.1048 9.06804 16.4354 13.3048 18.3775C15.2131 19.2515 17.4123 20.0607 19.8703 20.7728C22.2636 21.4849 24.9157 21.9057 27.7618 22.0676C37.5938 22.6179 43.0273 26.8258 45.8411 30.2892C46.6496 31.3251 47.3287 32.3285 47.8462 33.2996Z" fill="white"/>
<path d="M92.4705 28.2495C92.4705 29.3892 92.2467 30.4271 91.799 31.3632C91.3716 32.279 90.7814 33.0727 90.0284 33.7442C89.2958 34.4158 88.4208 34.9348 87.4032 35.3011C86.406 35.6674 85.3274 35.8505 84.1674 35.8505C83.3534 35.8505 82.5393 35.6369 81.7253 35.2095C80.9113 34.7618 80.1277 34.0597 79.3748 33.1032L81.6337 28.6769C81.7761 28.9414 81.9898 29.2161 82.2748 29.5011C82.5597 29.7656 82.8751 29.9997 83.2211 30.2032C83.5874 30.4067 83.9435 30.5797 84.2895 30.7221C84.6558 30.8442 84.9814 30.9053 85.2663 30.9053C85.5105 30.9053 85.765 30.8645 86.0295 30.7832C86.294 30.7018 86.5382 30.5797 86.7621 30.4169C86.986 30.254 87.159 30.0709 87.2811 29.8674C87.4235 29.6435 87.4948 29.3892 87.4948 29.1042C87.4948 28.6158 87.3319 28.1681 87.0063 27.7611C86.7011 27.3337 86.3144 26.9369 85.8463 26.5705C85.3782 26.1839 84.8695 25.7972 84.32 25.4105C83.7705 25.0239 83.2618 24.6169 82.7937 24.1895C82.346 23.7621 81.9593 23.2839 81.6337 22.7548C81.3081 22.2256 81.1453 21.6355 81.1453 20.9842C81.1453 19.926 81.4608 18.939 82.0916 18.0232C82.7224 17.1074 83.506 16.3239 84.4421 15.6727C85.3987 15.0011 86.4365 14.4719 87.5558 14.0853C88.6751 13.6987 89.7334 13.5053 90.7305 13.5053C91.28 13.5053 91.799 13.5765 92.2874 13.719C92.7758 13.8411 93.193 14.0548 93.539 14.36C93.9053 14.645 94.1902 15.0113 94.3937 15.459C94.6176 15.9067 94.7295 16.4663 94.7295 17.1379C94.7295 17.4229 94.699 17.7077 94.6379 17.9927C94.5972 18.2776 94.5565 18.5829 94.5158 18.9084L90.0895 20.1905C90.1302 20.0277 90.1608 19.865 90.1811 19.7021C90.2218 19.5393 90.2421 19.3765 90.2421 19.2137C90.2421 18.6032 90.1302 18.1656 89.9063 17.9011C89.7029 17.6161 89.4281 17.4737 89.0821 17.4737C88.9193 17.4737 88.7158 17.5348 88.4716 17.6569C88.2477 17.779 88.0137 17.9418 87.7695 18.1453C87.5456 18.3284 87.3523 18.5523 87.1895 18.8169C87.0267 19.0814 86.9453 19.3663 86.9453 19.6716C86.9453 20.16 87.0776 20.5671 87.3421 20.8927C87.6271 21.2182 87.973 21.5235 88.38 21.8084C88.7871 22.0934 89.2245 22.3884 89.6927 22.6937C90.1811 22.9787 90.6288 23.3551 91.0358 23.8232C91.4429 24.2913 91.7787 24.8814 92.0432 25.5937C92.3281 26.2856 92.4705 27.1709 92.4705 28.2495ZM109.159 19.2748C109.159 20.9435 108.976 22.5208 108.609 24.0063C108.263 25.4716 107.796 26.825 107.205 28.0663C106.615 29.2874 105.923 30.3863 105.129 31.3632C104.356 32.3197 103.542 33.1439 102.687 33.8358C101.833 34.5074 100.968 35.0263 100.093 35.3927C99.2175 35.7387 98.3831 35.9116 97.5894 35.9116C96.9178 35.9116 96.3073 35.7895 95.7578 35.5453C95.2083 35.2808 94.7301 34.9042 94.3231 34.4158C93.9161 33.9071 93.5904 33.266 93.3462 32.4927C93.1224 31.699 93.0104 30.7527 93.0104 29.6537C93.0104 28.514 93.153 27.3134 93.4378 26.0516C93.7228 24.7898 94.1094 23.5382 94.5978 22.2969C95.0862 21.0555 95.6867 19.8751 96.3989 18.7558C97.1112 17.6365 97.8946 16.6495 98.7494 15.7948C99.6041 14.9197 100.52 14.2277 101.497 13.719C102.474 13.2102 103.491 12.9558 104.549 12.9558C105.465 12.9558 106.218 13.1492 106.808 13.5358C107.419 13.9021 107.887 14.3905 108.213 15.0011C108.559 15.5913 108.803 16.2629 108.945 17.0158C109.087 17.7688 109.159 18.5218 109.159 19.2748ZM97.5589 28.86C97.5589 29.0839 97.5996 29.3179 97.681 29.5621C97.7624 29.8063 97.8743 30.02 98.0168 30.2032C98.1593 30.3863 98.3322 30.5492 98.5357 30.6916C98.7596 30.8137 98.9936 30.8748 99.2378 30.8748C100.154 30.8748 100.968 30.5593 101.68 29.9284C102.392 29.2976 102.982 28.5242 103.45 27.6084C103.919 26.6927 104.275 25.7158 104.519 24.6779C104.783 23.64 104.916 22.6937 104.916 21.839C104.916 21.5948 104.895 21.3302 104.855 21.0453C104.834 20.7603 104.773 20.4958 104.671 20.2516C104.59 20.0074 104.448 19.8039 104.244 19.6411C104.061 19.4579 103.807 19.3663 103.481 19.3663C102.83 19.3663 102.229 19.5292 101.68 19.8548C101.13 20.1803 100.632 20.6179 100.184 21.1674C99.7568 21.6965 99.3803 22.3071 99.0546 22.999C98.7291 23.6705 98.4441 24.3624 98.1999 25.0748C97.9761 25.7667 97.8133 26.4484 97.7115 27.12C97.6098 27.7916 97.5589 28.3716 97.5589 28.86ZM115.544 34.8127C114.913 34.8127 114.241 34.833 113.529 34.8737C112.837 34.9144 112.135 34.9755 111.423 35.0569C110.711 35.1382 110.008 35.2502 109.317 35.3927C108.645 35.5148 108.035 35.6674 107.485 35.8505C107.607 34.9348 107.749 33.9172 107.913 32.7979C108.075 31.6787 108.258 30.5187 108.462 29.3179C108.685 28.1172 108.899 26.9063 109.103 25.6853C109.326 24.4642 109.551 23.294 109.775 22.1748C110.283 19.5088 110.822 16.7919 111.393 14.0242L116.735 13.3221C116.185 15.6829 115.656 17.9824 115.147 20.2211C114.923 21.1776 114.699 22.1748 114.476 23.2127C114.252 24.2302 114.038 25.2274 113.835 26.2042C113.631 27.1811 113.447 28.1274 113.285 29.0432C113.122 29.959 112.989 30.773 112.888 31.4853C113.397 31.4445 113.936 31.4242 114.506 31.4242C115.096 31.4039 115.615 31.3937 116.063 31.3937C116.083 31.7803 116.114 32.1671 116.155 32.5537C116.195 32.92 116.236 33.2558 116.277 33.5611C116.338 33.8663 116.378 34.1411 116.399 34.3853C116.439 34.6092 116.469 34.7618 116.491 34.8432C116.327 34.8432 116.164 34.8432 116.002 34.8432C115.859 34.8229 115.706 34.8127 115.544 34.8127ZM127.564 35.179C127.055 35.2603 126.496 35.3519 125.885 35.4537C125.275 35.5555 124.725 35.6471 124.237 35.7284C124.318 35.0569 124.399 34.3955 124.481 33.7442C124.542 33.1744 124.593 32.6045 124.634 32.0348C124.695 31.465 124.745 30.9765 124.786 30.5695H122.131L120.909 34.9653C120.461 35.0263 119.933 35.0976 119.322 35.179C118.712 35.24 118.141 35.3011 117.613 35.3621C116.961 35.4435 116.32 35.525 115.689 35.6063C116.503 32.8997 117.307 30.2337 118.101 27.6084C118.426 26.5095 118.762 25.3597 119.108 24.159C119.475 22.9582 119.831 21.7677 120.177 20.5874C120.543 19.3867 120.888 18.2369 121.215 17.1379C121.54 16.039 121.825 15.0316 122.069 14.1158C123.453 14.014 124.857 13.8919 126.282 13.7495C127.726 13.6071 129.131 13.4137 130.495 13.1695C130.434 13.8208 130.362 14.6348 130.281 15.6116C130.22 16.5681 130.159 17.6161 130.098 18.7558C130.037 19.8955 129.976 21.086 129.915 22.3274C129.854 23.5688 129.793 24.7898 129.732 25.9905C129.629 28.799 129.518 31.7803 129.396 34.9348C128.785 35.0365 128.175 35.1179 127.564 35.179ZM122.863 27.5169C122.944 27.5169 123.086 27.5169 123.291 27.5169C123.514 27.4965 123.738 27.4863 123.962 27.4863C124.206 27.466 124.429 27.4558 124.634 27.4558C124.837 27.4355 124.979 27.4151 125.061 27.3948C125.061 27.2727 125.071 27.0692 125.092 26.7842C125.132 26.479 125.162 26.1432 125.183 25.7769C125.223 25.3902 125.264 24.973 125.305 24.5253C125.345 24.0776 125.386 23.64 125.427 23.2127C125.508 22.1748 125.611 21.0555 125.733 19.8548L125.916 17.199L125.458 17.2295L124.756 19.8548L122.863 27.5169ZM129.659 35.82C130.208 33.1134 130.737 30.4677 131.246 27.8832C131.429 26.7842 131.633 25.6445 131.857 24.4642C132.08 23.2635 132.284 22.0832 132.467 20.9232C132.671 19.7429 132.854 18.6134 133.017 17.5348C133.2 16.4358 133.342 15.4387 133.444 14.5432C134.604 14.1769 135.856 13.9123 137.199 13.7495C138.542 13.5663 139.875 13.4748 141.198 13.4748C141.992 13.4748 142.642 13.5663 143.152 13.7495C143.68 13.9327 144.087 14.1972 144.373 14.5432C144.678 14.8688 144.892 15.2555 145.014 15.7032C145.136 16.1509 145.197 16.6495 145.197 17.199C145.197 18.013 145.054 18.8169 144.769 19.6105C144.484 20.3839 144.098 21.1267 143.609 21.839C143.141 22.5309 142.592 23.1719 141.961 23.7621C141.351 24.3319 140.688 24.8 139.977 25.1663C140.343 25.9803 140.729 26.8758 141.137 27.8527C141.564 28.8092 141.961 29.725 142.327 30.6C142.734 31.6176 143.152 32.6351 143.579 33.6527L138.847 35.3011C138.44 33.9987 138.074 32.7776 137.748 31.6379C137.605 31.1698 137.463 30.6916 137.321 30.2032C137.178 29.6944 137.046 29.2161 136.924 28.7684C136.802 28.3208 136.7 27.9239 136.619 27.5779C136.537 27.2116 136.486 26.9165 136.466 26.6927L136.069 26.8148C135.947 27.466 135.795 28.2292 135.612 29.1042C135.448 29.9793 135.296 30.8239 135.154 31.6379C134.971 32.5944 134.787 33.5611 134.604 34.5379L129.659 35.82ZM136.833 22.5716C137.219 22.5309 137.687 22.3681 138.237 22.0832C138.806 21.7982 139.345 21.4624 139.855 21.0758C140.363 20.6688 140.801 20.2516 141.167 19.8242C141.534 19.3969 141.717 19.0203 141.717 18.6948C141.717 18.4709 141.645 18.2979 141.503 18.1758C141.36 18.0334 141.157 17.9316 140.893 17.8705C140.648 17.7892 140.374 17.7382 140.068 17.7179C139.763 17.6976 139.447 17.6874 139.122 17.6874C138.898 17.6874 138.664 17.6976 138.42 17.7179C138.196 17.7179 137.993 17.7179 137.809 17.7179L136.833 22.5716ZM158.638 20.1905C158.638 21.2488 158.485 22.3782 158.18 23.579C157.875 24.7593 157.447 25.9397 156.898 27.12C156.348 28.28 155.667 29.3993 154.853 30.4779C154.059 31.5361 153.154 32.4723 152.136 33.2863C151.119 34.08 149.999 34.7211 148.778 35.2095C147.578 35.6979 146.296 35.9421 144.932 35.9421C144.647 35.9421 144.362 35.9218 144.077 35.8811C143.793 35.8608 143.507 35.8302 143.222 35.7895C143.772 32.9811 144.312 30.2439 144.84 27.5779C145.044 26.4587 145.258 25.2987 145.481 24.0979C145.705 22.8769 145.919 21.6761 146.122 20.4958C146.326 19.3155 146.519 18.186 146.702 17.1074C146.906 16.0288 147.068 15.0519 147.191 14.1769C148.066 14.014 148.952 13.8614 149.846 13.719C150.742 13.5765 151.658 13.5053 152.594 13.5053C153.693 13.5053 154.619 13.6782 155.372 14.0242C156.145 14.3702 156.766 14.8484 157.234 15.459C157.722 16.0695 158.079 16.7818 158.302 17.5958C158.526 18.4098 158.638 19.2748 158.638 20.1905ZM151.434 17.8095C151.211 19.0102 150.976 20.16 150.732 21.259C150.487 22.3579 150.243 23.4671 149.999 24.5863C149.755 25.7056 149.511 26.8758 149.266 28.0969C149.022 29.3179 148.788 30.6509 148.564 32.0958C149.053 31.7702 149.521 31.3327 149.968 30.7832C150.437 30.2134 150.875 29.5621 151.281 28.8295C151.688 28.0969 152.055 27.3235 152.38 26.5095C152.726 25.6955 153.021 24.9018 153.265 24.1284C153.509 23.3551 153.693 22.6327 153.815 21.9611C153.958 21.2895 154.028 20.7095 154.028 20.2211C154.028 19.4681 153.815 18.8779 153.387 18.4505C152.981 18.0232 152.329 17.8095 151.434 17.8095ZM156.819 35.82L160.818 14.1158L170.464 13.2916C170.322 13.7393 170.2 14.1972 170.098 14.6653C169.996 15.0519 169.895 15.459 169.793 15.8863C169.712 16.2934 169.64 16.6597 169.579 16.9853C169.376 17.0056 169.08 17.026 168.694 17.0463C168.327 17.0463 167.931 17.0565 167.503 17.0769C167.076 17.0769 166.638 17.0769 166.191 17.0769C165.763 17.0769 165.386 17.0769 165.061 17.0769L163.993 22.5411C164.623 22.5003 165.214 22.4698 165.763 22.4495C166.211 22.4292 166.668 22.419 167.137 22.419C167.605 22.419 167.951 22.4088 168.175 22.3884C168.094 22.9582 168.012 23.5179 167.931 24.0674C167.869 24.6169 167.788 25.1765 167.686 25.7463C167.483 25.7667 167.147 25.7871 166.679 25.8074C166.232 25.8074 165.774 25.8176 165.305 25.8379C164.776 25.8582 164.196 25.8787 163.565 25.899L162.527 31.5158L166.984 30.8137L166.679 34.2937L156.819 35.82ZM179.983 34.3853C179.942 34.4056 179.8 34.4463 179.556 34.5074C179.312 34.5684 179.006 34.6498 178.64 34.7516C178.274 34.8534 177.866 34.9653 177.419 35.0874C176.992 35.2095 176.564 35.3316 176.137 35.4537C175.729 35.5758 175.343 35.6877 174.977 35.7895C174.611 35.9116 174.325 36.0134 174.122 36.0948C174.061 35.2808 174.011 34.4871 173.969 33.7137C173.928 33.0421 173.878 32.3705 173.817 31.699C173.776 31.0274 173.745 30.4677 173.725 30.02C173.542 30.4677 173.298 31.0274 172.993 31.699C172.707 32.3705 172.423 33.0319 172.138 33.6832C171.792 34.4361 171.436 35.1993 171.069 35.9727L165.88 35.5148C166.898 33.7035 167.915 31.9127 168.933 30.1421C169.951 28.3716 170.886 26.5197 171.741 24.5863C171.619 23.6705 171.497 22.8565 171.375 22.1442C171.273 21.4319 171.151 20.7298 171.008 20.0379C170.866 19.346 170.714 18.654 170.551 17.9621C170.387 17.2498 170.225 16.446 170.062 15.5505L174.946 13.5358C175.048 14.4923 175.16 15.5505 175.282 16.7105C175.424 17.8705 175.546 18.939 175.648 19.9158C176.117 18.8982 176.575 17.8808 177.022 16.8632C177.491 15.8456 177.968 14.8382 178.457 13.8411L182.883 15.0316C182.354 15.9271 181.876 16.7513 181.448 17.5042C181.021 18.2572 180.614 19.0102 180.227 19.7632C179.841 20.5161 179.454 21.2895 179.067 22.0832C178.681 22.8565 178.263 23.7214 177.816 24.6779C177.938 25.5734 178.08 26.4179 178.243 27.2116C178.406 28.0053 178.579 28.7888 178.762 29.5621C178.965 30.3355 179.159 31.119 179.342 31.9127C179.545 32.686 179.759 33.5102 179.983 34.3853Z" fill="white"/>
<defs>
<linearGradient id="paint0_linear_1_343" x1="13.1904" y1="20.102" x2="52.9712" y2="20.102" gradientUnits="userSpaceOnUse">
<stop stop-color="#9746FE"/>
<stop offset="0.071422" stop-color="#8C50F6"/>
<stop offset="1" stop-color="#03CE8E"/>
</linearGradient>
</defs>
</svg>
