<svg width="40" height="40" viewBox="0 0 40 40" fill="none" xmlns="http://www.w3.org/2000/svg">
<path d="M20.0001 38.3334C16.889 38.3334 13.889 37.4167 11.0001 35.5834C8.11119 33.7501 5.83341 31.6529 4.16675 29.2917V35.0001H1.66675V25.0001H11.6667V27.5001H5.95841C7.37508 29.639 9.39591 31.5626 12.0209 33.2709C14.6459 34.9792 17.3056 35.8334 20.0001 35.8334C22.1667 35.8334 24.2154 35.4167 26.1459 34.5834C28.0765 33.7501 29.757 32.6181 31.1876 31.1876C32.6181 29.757 33.7501 28.0765 34.5834 26.1459C35.4167 24.2154 35.8334 22.1667 35.8334 20.0001H38.3334C38.3334 22.5279 37.8542 24.9029 36.8959 27.1251C35.9376 29.3473 34.6251 31.2917 32.9584 32.9584C31.2917 34.6251 29.3473 35.9376 27.1251 36.8959C24.9029 37.8542 22.5279 38.3334 20.0001 38.3334ZM1.66675 20.0001C1.66675 17.4723 2.14591 15.0973 3.10425 12.8751C4.06258 10.6529 5.37508 8.70841 7.04175 7.04175C8.70841 5.37508 10.6529 4.06258 12.8751 3.10425C15.0973 2.14591 17.4723 1.66675 20.0001 1.66675C23.1112 1.66675 26.1112 2.58341 29.0001 4.41675C31.889 6.25008 34.1667 8.3473 35.8334 10.7084V5.00008H38.3334V15.0001H28.3334V12.5001H34.0417C32.6251 10.3612 30.6112 8.43758 28.0001 6.72925C25.389 5.02091 22.7223 4.16675 20.0001 4.16675C17.8334 4.16675 15.7848 4.58341 13.8542 5.41675C11.9237 6.25008 10.2431 7.38203 8.81258 8.81258C7.38203 10.2431 6.25008 11.9237 5.41675 13.8542C4.58341 15.7848 4.16675 17.8334 4.16675 20.0001H1.66675ZM18.7917 31.9584H21.0834V29.7917C22.7779 29.5973 24.0973 29.0765 25.0417 28.2292C25.9862 27.382 26.4584 26.2501 26.4584 24.8334C26.4584 23.4167 26.0556 22.264 25.2501 21.3751C24.4445 20.4862 23.0834 19.639 21.1667 18.8334C19.5556 18.1667 18.389 17.5695 17.6667 17.0417C16.9445 16.514 16.5834 15.8056 16.5834 14.9167C16.5834 14.0556 16.8959 13.3751 17.5209 12.8751C18.1459 12.3751 19.0001 12.1251 20.0834 12.1251C20.9167 12.1251 21.639 12.3195 22.2501 12.7084C22.8612 13.0973 23.3751 13.6806 23.7917 14.4584L25.7917 13.5001C25.3195 12.5279 24.6945 11.764 23.9167 11.2084C23.139 10.6529 22.2223 10.3195 21.1667 10.2084V8.08341H18.8751V10.2084C17.4584 10.4029 16.3404 10.9237 15.5209 11.7709C14.7015 12.6181 14.2917 13.6667 14.2917 14.9167C14.2917 16.2779 14.7084 17.3612 15.5417 18.1667C16.3751 18.9723 17.6251 19.7223 19.2917 20.4167C21.1529 21.1945 22.4306 21.8959 23.1251 22.5209C23.8195 23.1459 24.1667 23.9167 24.1667 24.8334C24.1667 25.7223 23.7987 26.4376 23.0626 26.9792C22.3265 27.5209 21.4029 27.7917 20.2917 27.7917C19.2084 27.7917 18.2431 27.4862 17.3959 26.8751C16.5487 26.264 15.9584 25.4306 15.6251 24.3751L13.5001 25.0834C14.0834 26.3612 14.7987 27.3681 15.6459 28.1042C16.4931 28.8404 17.5417 29.3751 18.7917 29.7084V31.9584Z" fill="#14F195"/>
</svg>
