<svg width="20" height="20" viewBox="0 0 20 20" fill="none" xmlns="http://www.w3.org/2000/svg">
<path d="M2.88906 1.01562C1.51417 1.01562 0.615234 1.91845 0.615234 3.10509C0.615234 4.26552 1.48739 5.19409 2.8363 5.19409H2.8624C4.26418 5.19409 5.13656 4.26552 5.13656 3.10509C5.11036 1.91845 4.26418 1.01562 2.88906 1.01562Z" fill="white"/>
<path d="M0.852783 6.84497H4.87218V18.9375H0.852783V6.84497Z" fill="white"/>
<path d="M14.738 6.56104C12.5697 6.56104 11.1157 8.59854 11.1157 8.59854V6.84485H7.09619V18.9374H11.1155V12.1844C11.1155 11.8229 11.1417 11.462 11.2479 11.2034C11.5384 10.4816 12.1997 9.73368 13.3101 9.73368C14.7645 9.73368 15.3462 10.8426 15.3462 12.4682V18.9374H19.3653V12.0037C19.3653 8.28944 17.3823 6.56104 14.738 6.56104Z" fill="white"/>
</svg>
