<svg width="40" height="40" viewBox="0 0 40 40" fill="none" xmlns="http://www.w3.org/2000/svg">
<path d="M9.99992 10.4167V13.3333H7.29159C6.24177 13.3333 5.23495 13.7504 4.49262 14.4927C3.75029 15.235 3.33325 16.2419 3.33325 17.2917V32.7083C3.33325 33.7581 3.75029 34.765 4.49262 35.5073C5.23495 36.2496 6.24177 36.6667 7.29159 36.6667H26.0416C26.1999 36.6667 26.3549 36.6575 26.5083 36.6392C26.1364 36.3658 25.7782 36.0743 25.4349 35.7658C25.0241 35.3969 24.6375 35.0019 24.2774 34.5833H7.29159C6.7943 34.5833 6.31739 34.3858 5.96576 34.0342C5.61413 33.6825 5.41659 33.2056 5.41659 32.7083V17.2917C5.41659 16.7944 5.61413 16.3175 5.96576 15.9658C6.31739 15.6142 6.7943 15.4167 7.29159 15.4167H26.0416C26.5389 15.4167 27.0158 15.6142 27.3674 15.9658C27.719 16.3175 27.9166 16.7944 27.9166 17.2917V19.4033C28.0603 19.2781 28.2017 19.1503 28.3408 19.02L28.3766 18.9867L28.3824 18.98C28.8151 18.5594 29.3965 18.3269 29.9999 18.3333V17.2917C29.9999 16.2419 29.5829 15.235 28.8406 14.4927C28.0982 13.7504 27.0914 13.3333 26.0416 13.3333H23.3333V10.4167C23.3333 8.64856 22.6309 6.95286 21.3806 5.70262C20.1304 4.45238 18.4347 3.75 16.6666 3.75C14.8985 3.75 13.2028 4.45238 11.9525 5.70262C10.7023 6.95286 9.99992 8.64856 9.99992 10.4167ZM16.6666 5.83333C17.8822 5.83333 19.048 6.31622 19.9075 7.17576C20.767 8.0353 21.2499 9.20109 21.2499 10.4167V13.3333H12.0833V10.4167C12.0833 9.20109 12.5661 8.0353 13.4257 7.17576C14.2852 6.31622 15.451 5.83333 16.6666 5.83333ZM19.1666 25C19.1666 25.663 18.9032 26.2989 18.4344 26.7678C17.9655 27.2366 17.3296 27.5 16.6666 27.5C16.0035 27.5 15.3677 27.2366 14.8988 26.7678C14.43 26.2989 14.1666 25.663 14.1666 25C14.1666 24.337 14.43 23.7011 14.8988 23.2322C15.3677 22.7634 16.0035 22.5 16.6666 22.5C17.3296 22.5 17.9655 22.7634 18.4344 23.2322C18.9032 23.7011 19.1666 24.337 19.1666 25ZM23.3333 23.1333V27.9167C23.3333 33.3192 28.5949 36.0817 29.7683 36.63C29.8402 36.6643 29.9189 36.6822 29.9987 36.6822C30.0784 36.6822 30.1571 36.6643 30.2291 36.63C31.4033 36.085 36.6666 33.3417 36.6666 28.0942V23.1333C36.6647 22.9651 36.5976 22.8041 36.4795 22.6843C36.3614 22.5645 36.2015 22.4951 36.0333 22.4908C35.2316 22.4633 33.8441 22.3625 32.9158 22C32.0524 21.6633 31.0549 20.775 30.4783 20.2125C30.3495 20.089 30.1779 20.02 29.9995 20.02C29.8211 20.02 29.6495 20.089 29.5208 20.2125C28.9441 20.775 27.9458 21.6625 27.0833 22C26.1558 22.3625 24.7683 22.4633 23.9666 22.4908C23.7984 22.4951 23.6384 22.5645 23.5203 22.6843C23.4022 22.8041 23.3351 22.9651 23.3333 23.1333Z" fill="#14F195"/>
</svg>
