<svg width="65" height="65" viewBox="0 0 65 65" fill="none" xmlns="http://www.w3.org/2000/svg">
<circle cx="32.5" cy="32.5" r="32.5" fill="#14F195"/>
<path d="M40.0875 20H24.915C23.21 20 21.8125 21.3975 21.8125 23.105V41.8975C21.8125 43.6025 23.21 45 24.915 45H40.0875C41.795 45 43.1925 43.6025 43.1925 41.8975V23.105C43.19 21.3975 41.795 20 40.0875 20ZM40.605 40.1925C40.605 41.33 39.6775 42.26 38.5375 42.26H26.4675C25.33 42.26 24.3975 41.33 24.3975 40.1925V24.8075C24.3975 23.67 25.3275 22.7375 26.4675 22.7375H38.5375C39.675 22.7375 40.605 23.67 40.605 24.8075V40.1925ZM37.63 31.12H27.3725C26.8025 31.12 26.3375 31.5875 26.3375 32.155V33.105C26.3375 33.6725 26.8025 34.1375 27.3725 34.1375H37.63C38.2 34.1375 38.665 33.6725 38.665 33.105V32.155C38.665 31.5875 38.2 31.12 37.63 31.12ZM37.63 26.465H27.3725C26.8025 26.465 26.3375 26.93 26.3375 27.5V28.4475C26.3375 29.0175 26.8025 29.4825 27.3725 29.4825H37.63C38.2 29.4825 38.665 29.0175 38.665 28.4475V27.5C38.665 26.9325 38.2 26.465 37.63 26.465ZM37.63 35.7775H27.3725C26.8025 35.7775 26.3375 36.2425 26.3375 36.81V37.7575C26.3375 38.3275 26.8025 38.7925 27.3725 38.7925H37.63C38.2 38.7925 38.665 38.3275 38.665 37.7575V36.81C38.665 36.2425 38.2 35.7775 37.63 35.7775Z" fill="#223268"/>
</svg>
