<svg width="40" height="40" viewBox="0 0 40 40" fill="none" xmlns="http://www.w3.org/2000/svg">
<path d="M8.75 5C7.75544 5 6.80161 5.39509 6.09835 6.09835C5.39509 6.80161 5 7.75544 5 8.75V11.7325C5 13.0325 5.675 14.2375 6.7775 14.92L16.4425 20.895C14.9724 21.6871 13.8087 22.9471 13.1359 24.4754C12.463 26.0037 12.3194 27.7129 12.7278 29.3321C13.1363 30.9512 14.0734 32.3878 15.3907 33.414C16.708 34.4403 18.3301 34.9976 20 34.9976C21.6699 34.9976 23.292 34.4403 24.6093 33.414C25.9266 32.3878 26.8637 30.9512 27.2722 29.3321C27.6806 27.7129 27.537 26.0037 26.8641 24.4754C26.1913 22.9471 25.0276 21.6871 23.5575 20.895L33.2225 14.92C33.7657 14.584 34.2141 14.1149 34.5252 13.5571C34.8363 12.9992 34.9997 12.3712 35 11.7325V8.75C35 7.75544 34.6049 6.80161 33.9017 6.09835C33.1984 5.39509 32.2446 5 31.25 5H8.75ZM7.5 8.75C7.5 8.41848 7.6317 8.10054 7.86612 7.86612C8.10054 7.6317 8.41848 7.5 8.75 7.5H12.5V15.52L8.0925 12.795C7.91143 12.683 7.76197 12.5266 7.65827 12.3407C7.55458 12.1547 7.5001 11.9454 7.5 11.7325V8.75ZM15 17.065V7.5H25V17.065L20.6575 19.75C20.46 19.8722 20.2323 19.9369 20 19.9369C19.7677 19.9369 19.54 19.8722 19.3425 19.75L15 17.065ZM27.5 15.52V7.5H31.25C31.5815 7.5 31.8995 7.6317 32.1339 7.86612C32.3683 8.10054 32.5 8.41848 32.5 8.75V11.7325C32.4999 11.9454 32.4454 12.1547 32.3417 12.3407C32.238 12.5266 32.0886 12.683 31.9075 12.795L27.5 15.52ZM15 27.5C15 26.1739 15.5268 24.9021 16.4645 23.9645C17.4021 23.0268 18.6739 22.5 20 22.5C21.3261 22.5 22.5979 23.0268 23.5355 23.9645C24.4732 24.9021 25 26.1739 25 27.5C25 28.8261 24.4732 30.0979 23.5355 31.0355C22.5979 31.9732 21.3261 32.5 20 32.5C18.6739 32.5 17.4021 31.9732 16.4645 31.0355C15.5268 30.0979 15 28.8261 15 27.5Z" fill="#14F195"/>
</svg>
