<svg width="31" height="25" viewBox="0 0 31 25" fill="none" xmlns="http://www.w3.org/2000/svg">
<path d="M30.3196 3.24835C29.2062 3.74082 28.0256 4.06425 26.8167 4.20793C28.0909 3.44586 29.0446 2.24649 29.5 0.833348C28.3042 1.54502 26.9931 2.04376 25.6267 2.31356C24.7088 1.33148 23.4922 0.68017 22.166 0.460868C20.8397 0.241566 19.4782 0.466564 18.2931 1.10088C17.1079 1.7352 16.1656 2.7433 15.6124 3.96846C15.0593 5.19362 14.9265 6.56719 15.2346 7.87564C12.8095 7.75409 10.4371 7.1239 8.27145 6.02598C6.10575 4.92806 4.19517 3.38696 2.66374 1.50272C2.12166 2.4338 1.83679 3.49222 1.83832 4.5696C1.83832 6.68418 2.91457 8.55231 4.55082 9.64606C3.5825 9.61557 2.63549 9.35407 1.78874 8.88335V8.95918C1.78903 10.3675 2.27636 11.7324 3.1681 12.8224C4.05984 13.9124 5.3011 14.6605 6.68144 14.9398C5.78255 15.1834 4.84002 15.2193 3.92519 15.0448C4.31437 16.257 5.07291 17.3172 6.0946 18.0768C7.11628 18.8365 8.34996 19.2576 9.6229 19.2813C8.35777 20.2749 6.9092 21.0094 5.36002 21.4428C3.81084 21.8762 2.19142 22 0.59436 21.8071C3.38225 23.6 6.62763 24.5519 9.94228 24.5488C21.1612 24.5488 27.2964 15.2548 27.2964 7.1946C27.2964 6.9321 27.2892 6.66668 27.2775 6.4071C28.4717 5.54401 29.5023 4.47484 30.321 3.24981L30.3196 3.24835Z" fill="white"/>
</svg>
