<svg width="20" height="20" viewBox="0 0 20 20" fill="none" xmlns="http://www.w3.org/2000/svg">
<path d="M6.51564 17.5085C13.5915 17.5085 17.461 11.6464 17.461 6.56319C17.461 6.3967 17.4575 6.2309 17.4501 6.06601C18.2011 5.52296 18.8539 4.84529 19.369 4.07394C18.6797 4.38044 17.9378 4.58649 17.1598 4.67971C17.954 4.20328 18.5638 3.44993 18.8514 2.55188C18.1081 2.99254 17.2849 3.31268 16.4087 3.48559C15.7067 2.73787 14.7072 2.27026 13.6005 2.27026C11.4763 2.27026 9.75343 3.99299 9.75343 6.11658C9.75343 6.4186 9.78725 6.71214 9.85319 6.99376C6.65599 6.83289 3.82079 5.30223 1.92367 2.97453C1.59343 3.54293 1.40286 4.2034 1.40286 4.90812C1.40286 6.24259 2.08202 7.421 3.11469 8.11014C2.48357 8.09076 1.89076 7.9175 1.37247 7.62912C1.3719 7.64528 1.3719 7.66099 1.3719 7.67819C1.3719 9.54126 2.69788 11.0968 4.45833 11.4493C4.13497 11.5372 3.79476 11.5846 3.44389 11.5846C3.19644 11.5846 2.95519 11.5603 2.72081 11.5152C3.21055 13.0437 4.63078 14.1559 6.31452 14.1871C4.99783 15.2191 3.3392 15.8338 1.53656 15.8338C1.2265 15.8338 0.920006 15.8161 0.618896 15.7805C2.32144 16.8718 4.34309 17.5086 6.51576 17.5086" fill="white"/>
</svg>
