<svg width="31" height="31" viewBox="0 0 31 31" fill="none" xmlns="http://www.w3.org/2000/svg">
<path d="M15.5 30.0834C7.44559 30.0834 0.916626 23.5545 0.916626 15.5001C0.916626 7.44571 7.44559 0.916748 15.5 0.916748C23.5543 0.916748 30.0833 7.44571 30.0833 15.5001C30.0833 23.5545 23.5543 30.0834 15.5 30.0834ZM10.9645 17.2063L10.9835 17.1961L12.2523 21.3815C12.4156 21.8351 12.6402 21.9168 12.9129 21.8788C13.187 21.8424 13.3314 21.6951 13.5108 21.523L15.2433 19.8488L18.962 22.6022C19.6416 22.977 20.1302 22.783 20.2993 21.9722L22.7158 10.5651C22.9827 9.50342 22.516 9.07758 21.692 9.41592L7.49809 14.8993C6.52975 15.2872 6.53558 15.8297 7.32309 16.0703L10.9645 17.2078V17.2063Z" fill="white"/>
</svg>
